<svg xmlns="http://www.w3.org/2000/svg" viewBox="0 0 512 512" width="512" height="512">
  <defs>
    <linearGradient id="Bg" x1="0%" y1="0%" x2="100%" y2="100%">
      <stop offset="0%" stop-color="#a78bfa"/>
      <stop offset="55%" stop-color="#7c3aed"/>
      <stop offset="100%" stop-color="#5b21b6"/>
    </linearGradient>
    <filter id="shadow" x="-10%" y="-10%" width="120%" height="120%">
      <feDropShadow dx="0" dy="4" stdDeviation="6" flood-color="#2e1065" flood-opacity="0.35"/>
    </filter>
  </defs>
  <rect width="512" height="512" rx="98" ry="98" fill="url(#Bg)"/>
  <g filter="url(#shadow)">
    <rect x="96" y="88" width="320" height="336" rx="26" fill="#ffffff"/>
    <rect x="132" y="148" width="120" height="14" rx="7" fill="#dcd4ff"/>
    <rect x="132" y="188" width="188" height="14" rx="7" fill="#dcd4ff"/>
    <rect x="132" y="228" width="156" height="14" rx="7" fill="#dcd4ff"/>
    <rect x="132" y="268" width="172" height="14" rx="7" fill="#dcd4ff"/>
    <rect x="300" y="92" width="116" height="56" rx="14" fill="#7c3aed"/>
    <text x="358" y="128" text-anchor="middle" font-family="Segoe UI, Microsoft YaHei, sans-serif" font-size="26" font-weight="700" fill="#ffffff">PDF</text>
    <rect x="308" y="258" width="88" height="88" rx="18" fill="#ede9fe" stroke="#7c3aed" stroke-width="7"/>
    <text x="352" y="308" text-anchor="middle" font-family="Segoe UI, Microsoft YaHei, sans-serif" font-size="34" font-weight="700" fill="#5b21b6">注</text>
    <rect x="262" y="328" width="168" height="30" rx="15" fill="#fbbf24"/>
    <rect x="430" y="334" width="32" height="18" rx="6" fill="#1e1633"/>
  </g>
  <ellipse cx="143" cy="127" rx="25" ry="25" fill="#ffffff" opacity="0.2"/>
</svg>
